<?xml version="1.0" encoding="utf-8"?>
<!-- Generator: Adobe Illustrator 20.0.0, SVG Export Plug-In . SVG Version: 6.00 Build 0)  -->
<svg version="1.1" id="Layer_1" xmlns="http://www.w3.org/2000/svg" xmlns:xlink="http://www.w3.org/1999/xlink" x="0px" y="0px"
	 viewBox="0 0 75.5 164.2" style="enable-background:new 0 0 75.5 164.2;" xml:space="preserve">
<style type="text/css">
	.st0{fill:#3A5060;}
</style>
<g>
	<g>
		<path class="st0" d="M57.7,0c11,0,16.5,7.5,16.5,16.1c0,10.7-9.5,20.6-22,20.6c-10.4,0-16.5-6.2-16.2-16.3C36,11.8,43.3,0,57.7,0z
			 M23.9,164.2c-8.7,0-15-5.4-9-28.9l10-41.8c1.7-6.7,2-9.4,0-9.4c-2.6,0-13.9,4.6-20.5,9.2L0,86.1c21.1-17.9,45.4-28.5,55.8-28.5
			c8.7,0,10.1,10.4,5.8,26.5l-11.4,43.9c-2,7.8-1.2,10.4,0.9,10.4c2.6,0,11.1-3.2,19.5-9.9l4.9,6.7C55,156.2,32.6,164.2,23.9,164.2z
			"/>
	</g>
</g>
</svg>
