<?xml version="1.0" encoding="utf-8"?>
<!-- Generator: Adobe Illustrator 20.0.0, SVG Export Plug-In . SVG Version: 6.00 Build 0)  -->
<svg version="1.1" id="Layer_1" xmlns="http://www.w3.org/2000/svg" xmlns:xlink="http://www.w3.org/1999/xlink" x="0px" y="0px"
	 viewBox="0 0 70.7 100.5" style="enable-background:new 0 0 70.7 100.5;" xml:space="preserve">
<style type="text/css">
	.st0{fill:#56646D;}
</style>
<g>
	<g>
		<g>
			<path class="st0" d="M35.3,0C15.8,0,0,15.8,0,35.3c0,6.6,1.8,13,5.3,18.6l28,45.2c0.5,0.9,1.5,1.4,2.5,1.4c0,0,0,0,0,0
				c1,0,2-0.6,2.5-1.4l27.3-45.6c3.3-5.5,5-11.7,5-18.1C70.7,15.8,54.8,0,35.3,0z M60.6,50.4L35.8,91.9L10.3,50.8
				c-2.9-4.6-4.4-10-4.4-15.5c0-16.2,13.2-29.5,29.5-29.5s29.5,13.2,29.5,29.5C64.8,40.7,63.3,45.9,60.6,50.4z"/>
		</g>
	</g>
	<g>
		<g>
			<path class="st0" d="M35.3,17.7c-9.7,0-17.7,7.9-17.7,17.7C17.7,45,25.5,53,35.3,53c10,0,17.7-8.1,17.7-17.7
				C53,25.6,45.1,17.7,35.3,17.7z M35.3,47.1c-6.5,0-11.8-5.3-11.8-11.8c0-6.5,5.3-11.8,11.8-11.8s11.8,5.3,11.8,11.8
				C47.1,41.7,42,47.1,35.3,47.1z"/>
		</g>
	</g>
</g>
</svg>
