<?xml version="1.0" encoding="utf-8"?>
<!-- Generator: Adobe Illustrator 20.0.0, SVG Export Plug-In . SVG Version: 6.00 Build 0)  -->
<svg version="1.1" id="Layer_1" xmlns="http://www.w3.org/2000/svg" xmlns:xlink="http://www.w3.org/1999/xlink" x="0px" y="0px"
	 viewBox="0 0 194.9 163.6" style="enable-background:new 0 0 194.9 163.6;" xml:space="preserve">
<style type="text/css">
	.st0{fill:#3A5060;}
</style>
<g>
	<g>
		<path class="st0" d="M106,106.5c13.1,0,23.7-10.6,23.7-23.7c0-13.1-10.6-23.7-23.7-23.7c-13,0-23.6,10.6-23.6,23.7
			C82.4,95.9,93,106.5,106,106.5z"/>
		<path class="st0" d="M125,110.4h-38c-6.8,0-12.3,6.2-12.3,13.9v38.1c0,0.4,0.2,0.8,0.2,1.2h62.1c0-0.4,0.2-0.8,0.2-1.2v-38.1
			C137.3,116.6,131.8,110.4,125,110.4z"/>
		<path class="st0" d="M169.7,117.8c10.5,0,19-8.5,19-19s-8.5-19-19-19c-10.5,0-18.9,8.5-18.9,19
			C150.8,109.3,159.3,117.8,169.7,117.8z"/>
		<path class="st0" d="M185,120.9h-30.4c-5.5,0-9.9,5-9.9,11.1v30.5c0,0.3,0.2,0.6,0.2,1h49.8c0-0.4,0.2-0.7,0.2-1V132
			C194.9,125.9,190.4,120.9,185,120.9z"/>
		<path class="st0" d="M42.3,117.8c10.5,0,19-8.5,19-19s-8.5-19-19-19c-10.5,0-18.9,8.5-18.9,19S31.8,117.8,42.3,117.8L42.3,117.8z"
			/>
		<path class="st0" d="M57.5,120.9H27.1c-5.4,0-9.9,5-9.9,11.1v30.5c0,0.3,0.2,0.6,0.2,1h49.8c0-0.4,0.2-0.7,0.2-1V132
			C67.4,125.9,63,120.9,57.5,120.9z"/>
	</g>
</g>
</svg>
