<?xml version="1.0" encoding="utf-8"?>
<!-- Generator: Adobe Illustrator 20.0.0, SVG Export Plug-In . SVG Version: 6.00 Build 0)  -->
<svg version="1.1" id="Layer_1" xmlns="http://www.w3.org/2000/svg" xmlns:xlink="http://www.w3.org/1999/xlink" x="0px" y="0px"
	 viewBox="0 0 595.3 595.4" style="enable-background:new 0 0 595.3 595.4;" xml:space="preserve" width="23" height="23">
<style type="text/css">
	.st0{fill:#FFFFFF;}
</style>
<path class="st0" d="M720.6-102V24.9h126.9V-102H720.6z M794.6-33.2c-2.2,14.3-12.8,22.4-26.6,22.4c-15.5,0-28-12.5-28-28
	c0-15.5,12.5-28,28-28c7.5,0,14,2.7,18.8,7.3l-8,8c-2.7-2.7-6.4-4.2-10.8-4.2c-9.1,0-16.5,7.8-16.5,16.9c0,9.1,7.4,16.6,16.5,16.6
	c7.6,0,13.4-3.7,15.1-11.1H768v-11.2h26.5c0.3,1.8,0.5,3.7,0.5,5.7C795-36.8,794.8-35,794.6-33.2z M828.2-36.7h-9.8v9.8h-7v-9.8
	h-9.8v-7h9.8v-9.8h7v9.8h9.8V-36.7z"/>
<path class="st0" d="M0,0v595.4H317v-230h-77.5v-93.9H317v-78.8c0-57.3,46.5-103.8,103.8-103.8h81v84.4h-58c-18.2,0-33,14.8-33,33
	v65.3h89.5L488,365.4h-77.1v230h184.4V0H0z"/>
<path class="st0" d="M-209.1,36.1V163h126.9V36.1H-209.1z M-170.2,140.8c0,1.6-1.3,2.9-2.9,2.9h-12.5c-1.6,0-2.9-1.3-2.9-2.9V87.7
	c0-1.6,1.3-2.9,2.9-2.9h12.5c1.6,0,2.9,1.3,2.9,2.9V140.8z M-179.3,76.6C-185,76.7-190,72-189.9,66c0-5.8,4.8-10.6,10.7-10.6
	c5.8,0,10.6,4.8,10.6,10.6C-168.7,72.1-173.7,76.7-179.3,76.6z M-101.4,103.4v39.1c0,0.7-0.5,1.2-1.2,1.2l-15.9,0
	c-0.7,0-1.2-0.5-1.2-1.2v-32.8c0-2.8-1.1-5.4-3-7.3c-1.9-1.9-4.5-3-7.4-3c-5.6,0.1-10.2,4.8-10.2,10.4v32.7c0,0.7-0.5,1.2-1.2,1.2
	l-15.9,0c-0.7,0-1.2-0.5-1.2-1.2V85.9c0-0.7,0.5-1.2,1.2-1.2h15.5c0.7,0,1.2,0.5,1.2,1.2l0,6.5c0,0,0.1,0,0.2,0
	c0.3-0.5,0.6-1.1,1-1.6c3.2-4.6,8.6-7.7,14.7-7.7h3.2C-110.4,83.2-101.4,92.3-101.4,103.4L-101.4,103.4z"/>
</svg>
