<?xml version="1.0" encoding="utf-8"?>
<!-- Generator: Adobe Illustrator 20.0.0, SVG Export Plug-In . SVG Version: 6.00 Build 0)  -->
<svg version="1.1" id="Layer_1" xmlns="http://www.w3.org/2000/svg" xmlns:xlink="http://www.w3.org/1999/xlink" x="0px" y="0px"
	 viewBox="0 0 194.9 163.6" style="enable-background:new 0 0 194.9 163.6;" xml:space="preserve">
<style type="text/css">
	.st0{fill:#3A5060;}
</style>
<g>
	<g>
		<g>
			<path class="st0" d="M161.9,0c-14.9,0-26.7,11.9-26.7,26.8s11.9,26.7,26.7,26.7s26.8-11.9,26.8-26.8S176.8,0,161.9,0z
				 M161.9,47.6c-11.6,0-21-9.4-21-21s9.6-20.8,21-20.8c11.6,0,21,9.4,21,21S173.5,47.6,161.9,47.6z"/>
		</g>
	</g>
	<g>
		<g>
			<path class="st0" d="M170.4,30.9c-0.2-0.6-0.2-0.9-0.6-1.5c-0.2-0.4-0.4-0.9-0.7-1.3c-0.4-0.4-0.6-0.7-0.9-1.1
				c-0.4-0.4-0.7-0.7-1.3-0.9c-0.4-0.4-0.9-0.6-1.3-0.7c-0.6-0.2-0.9-0.6-1.5-0.7c-0.6-0.2-1.1-0.4-1.5-0.6c-0.2,0-0.6-0.2-0.7-0.4
				c-0.2-0.2-0.6-0.2-0.7-0.4c-0.2-0.2-0.6-0.2-0.7-0.4c-0.2-0.2-0.4-0.4-0.6-0.6c-0.2-0.2-0.4-0.4-0.4-0.7
				c-0.2-0.2-0.2-0.6-0.2-0.7c0-0.4,0-0.6,0-0.9c0-0.2,0.2-0.6,0.2-0.7c0.2-0.2,0.2-0.6,0.4-0.7c0.2-0.2,0.4-0.4,0.6-0.6
				c0.2-0.2,0.6-0.4,0.9-0.4c0.4-0.2,0.6-0.2,0.9-0.2c0.2,0,0.4,0,0.6,0c0.2,0,0.4,0,0.6,0c0.4,0,0.6,0,0.9,0.2
				c0.4,0,0.7,0.2,0.9,0.2c0.2,0,0.6,0.2,0.7,0.2c0.4,0,0.6,0.2,0.7,0.2l0.9,0.4l0.2-1.1l0.4-2.9v-0.7l-0.7-0.2
				c-0.2,0-0.6-0.2-0.7-0.2s-0.4-0.2-0.7-0.2c-0.2,0-0.6-0.2-0.9-0.2c-0.4,0-0.6-0.2-0.9-0.2H164v-2.6V9.4H163h-2.6h-0.9v0.9v2.8
				h-0.2c-0.6,0.2-1.1,0.4-1.7,0.7c-0.6,0.2-0.9,0.6-1.3,0.9c-0.4,0.4-0.7,0.7-1.1,1.3c-0.4,0.4-0.6,0.9-0.7,1.5
				c-0.2,0.6-0.4,1.1-0.6,1.7c-0.2,0.6-0.2,1.3-0.2,1.8c0,0.6,0,0.9,0.2,1.5c0.2,0.6,0.2,0.9,0.6,1.5c0.2,0.4,0.6,0.9,0.7,1.3
				c0.4,0.4,0.6,0.7,0.9,1.1c0.4,0.4,0.7,0.7,1.3,0.9c0.4,0.4,0.9,0.6,1.3,0.7c0.6,0.2,1.1,0.6,1.5,0.7c0.6,0.2,1.1,0.4,1.5,0.6
				c0.2,0,0.6,0.2,0.7,0.4c0.2,0.2,0.6,0.2,0.7,0.4c0.2,0.2,0.4,0.4,0.6,0.4c0.2,0.2,0.4,0.4,0.6,0.6c0.2,0.2,0.2,0.4,0.4,0.7
				c0,0.2,0.2,0.6,0.2,0.9c0,0.4,0,0.6,0,0.9c0,0.2-0.2,0.6-0.4,0.7c-0.2,0.2-0.4,0.4-0.6,0.6c-0.2,0.2-0.4,0.4-0.7,0.6
				c-0.2,0.2-0.6,0.2-0.7,0.4c-0.2,0-0.6,0.2-0.9,0.2c-0.2,0-0.4,0-0.7,0c-0.2,0-0.6,0-0.7,0c-0.4,0-0.7,0-0.9,0
				c-0.4,0-0.7-0.2-0.9-0.2c-0.4,0-0.7-0.2-1.1-0.4s-0.7-0.2-1.1-0.4c-0.2,0-0.4-0.2-0.6-0.2s-0.4-0.2-0.6-0.2l-1.1-0.6l-0.2,1.3
				l-0.4,3.3v0.6l0.6,0.2c0.7-0.2,1.1,0,1.7,0.2c0.4,0.2,0.9,0.4,1.3,0.4c0.4,0.2,0.9,0.2,1.5,0.4s0.9,0.2,1.5,0.2h0.4v2.8v0.9h0.9
				h2.6h0.9v-0.9v-2.9h0.2c0.6-0.2,1.1-0.4,1.7-0.7c0.6-0.2,0.9-0.6,1.5-0.9c0.4-0.4,0.7-0.7,1.1-1.3c0.4-0.4,0.6-0.9,0.9-1.5
				c0.2-0.6,0.4-1.1,0.6-1.7c0.2-0.6,0.2-1.1,0.2-1.8C170.6,31.8,170.6,31.4,170.4,30.9z"/>
		</g>
	</g>
	<g>
		<g>
			<path class="st0" d="M149.1,57c-0.9-1.3-2.9-1.5-4.2-0.6l-29.8,23.7l-38.4-16c-0.9-0.4-2-0.2-2.8,0.4L32.7,93.9
				c-1.3,0.9-1.7,2.8-0.7,4c0.6,0.9,1.5,1.3,2.4,1.3c0.6,0,1.1-0.2,1.7-0.6l39.9-28.5l38.6,16c0.9,0.4,2.2,0.2,2.9-0.4l31.1-24.6
				C149.8,60.3,150,58.3,149.1,57z"/>
		</g>
	</g>
	<g>
		<g>
			<path class="st0" d="M192.1,157.7h-13.6V72.6c0-1.7-1.3-2.9-2.9-2.9h-27c-1.7,0-2.9,1.3-2.9,2.9v85.1h-9.9V102
				c0-1.7-1.3-2.9-2.9-2.9h-27.2c-1.7,0-2.9,1.3-2.9,2.9v55.7h-9.9V97.6c0-1.7-1.3-2.9-2.9-2.9h-27c-1.7,0-2.9,1.3-2.9,2.9v60.1
				h-9.9v-42.8c0-1.7-1.3-2.9-2.9-2.9H19.7c-1.7,0-2.9,1.3-2.9,2.9v42.8H2.9c-1.7,0-2.9,1.3-2.9,2.9c0,1.7,1.3,2.9,2.9,2.9h16.5h27
				h16.2h27h15.8h27h15.8h27h16.5c1.7,0,2.9-1.3,2.9-2.9C195,159,193.7,157.7,192.1,157.7z M43.7,157.7H22.6v-39.9h21.1V157.7z
				 M86.8,157.7H65.6v-57.2h21.1V157.7z M129.6,157.7h-21.1V105h21.1V157.7z M172.6,157.7h-21.1V75.5h21.1V157.7z"/>
		</g>
	</g>
</g>
</svg>
