<?xml version="1.0" encoding="utf-8"?>
<!-- Generator: Adobe Illustrator 20.0.0, SVG Export Plug-In . SVG Version: 6.00 Build 0)  -->
<svg version="1.1" id="Layer_1" xmlns="http://www.w3.org/2000/svg" xmlns:xlink="http://www.w3.org/1999/xlink" x="0px" y="0px"
	 viewBox="0 0 595.3 595.4" style="enable-background:new 0 0 595.3 595.4;" xml:space="preserve" width="23" height="23">
<style type="text/css">
	.st0{fill:#FFFFFF;}
</style>
<path class="st0" d="M0,0v595.4h595.4V0H0z M347.1,322.7c-10.2,66.9-60,105.2-124.6,105.2c-72.5,0-131.4-58.8-131.4-131.4
	c0-72.5,58.8-131.3,131.4-131.3c35.1,0,65.8,12.5,88.2,34.3L273,237.2c-12.8-12.9-30.2-19.7-50.5-19.7c-42.7,0-77.3,36.4-77.3,79.1
	c0,42.7,34.6,78.1,77.3,78.1c35.8,0,62.9-17.3,70.7-51.9h-70.7V270h124.3c1.5,8.5,2.2,17.4,2.2,26.6
	C349,305.7,348.3,314.4,347.1,322.7z M504.8,306.4h-46v46h-32.7v-46h-46v-32.7h46v-46h32.7v46h46V306.4z"/>
</svg>
