<?xml version="1.0" encoding="utf-8"?>
<!-- Generator: Adobe Illustrator 20.0.0, SVG Export Plug-In . SVG Version: 6.00 Build 0)  -->
<svg version="1.1" id="Layer_1" xmlns="http://www.w3.org/2000/svg" xmlns:xlink="http://www.w3.org/1999/xlink" x="0px" y="0px"
	 viewBox="0 0 194.1 213.6" style="enable-background:new 0 0 194.1 213.6;" xml:space="preserve">
<style type="text/css">
	.st0{fill:#36C1CF;}
	.st1{font-family:'Ubuntu';}
	.st2{font-size:15.2408px;}
	.st3{fill:#F37989;}
	.st4{fill:#06AA9F;}
</style>
<g>
	<rect x="2.9" y="186.7" class="st0" width="188.6" height="6.8"/>
	<text transform="matrix(0.996 0 0 1 2.8708 210.5156)" class="st1 st2">Certifed Public Accountant</text>
	<g>
		<polygon class="st3" points="162.2,36.4 162.2,91.9 138.4,91.9 138.4,114.4 162.2,114.4 162.2,181.3 191.5,181.3 191.5,36.4 		"/>
		<polygon class="st0" points="138.4,3.6 109.1,3.6 109.1,125 108.9,125 85.2,125 85.2,125 85.2,91.9 55.9,91.9 55.9,111.7 
			55.9,111.7 55.9,134.1 55.9,134.1 55.9,181.3 85.2,181.3 85.2,147.5 85.2,147.5 108.9,147.5 109.1,147.5 109.1,181.3 138.4,181.3 
			138.4,114.4 138.4,91.9 		"/>
		<polygon class="st4" points="55.9,111.7 55.9,111.7 32.2,111.7 32.1,111.7 32.1,67.5 2.9,67.5 2.9,181.3 32.1,181.3 32.1,134.1 
			32.2,134.1 55.9,134.1 55.9,134.1 		"/>
	</g>
</g>
</svg>
