<?xml version="1.0" encoding="utf-8"?>
<!-- Generator: Adobe Illustrator 20.0.0, SVG Export Plug-In . SVG Version: 6.00 Build 0)  -->
<svg version="1.1" id="Layer_1" xmlns="http://www.w3.org/2000/svg" xmlns:xlink="http://www.w3.org/1999/xlink" x="0px" y="0px"
	 viewBox="0 0 595.3 595.4" style="enable-background:new 0 0 595.3 595.4;" xml:space="preserve" width="23" height="23">
<style type="text/css">
	.st0{fill:#FFFFFF;}
</style>
<path class="st0" d="M720.6-102V24.9h126.9V-102H720.6z M794.6-33.2c-2.2,14.3-12.8,22.4-26.6,22.4c-15.5,0-28-12.5-28-28
	c0-15.5,12.5-28,28-28c7.5,0,14,2.7,18.8,7.3l-8,8c-2.7-2.7-6.4-4.2-10.8-4.2c-9.1,0-16.5,7.8-16.5,16.9c0,9.1,7.4,16.6,16.5,16.6
	c7.6,0,13.4-3.7,15.1-11.1H768v-11.2h26.5c0.3,1.8,0.5,3.7,0.5,5.7C795-36.8,794.8-35,794.6-33.2z M828.2-36.7h-9.8v9.8h-7v-9.8
	h-9.8v-7h9.8v-9.8h7v9.8h9.8V-36.7z"/>
<path class="st0" d="M0,0v595.4h595.4V0H0z M182.8,491.1c0,7.6-6.1,13.7-13.7,13.7h-58.4c-7.6,0-13.7-6.1-13.7-13.7V241.9
	c0-7.6,6.1-13.7,13.7-13.7h58.4c7.6,0,13.7,6.1,13.7,13.7V491.1z M139.8,190.1c-26.5,0.5-49.8-21.6-49.8-49.9
	c0-27.4,22.6-49.8,50.2-49.8c27.3,0,49.8,22.5,49.7,49.9C189.7,169.1,165.9,190.7,139.8,190.1z M505.4,315.7v183.5
	c0,3.1-2.6,5.7-5.7,5.7l-74.7,0c-3.1,0-5.7-2.6-5.7-5.7V345.3c0-13.3-5.4-25.4-14.1-34.1c-8.8-8.8-21.1-14.3-34.6-14.1
	c-26.5,0.3-47.6,22.3-47.6,48.8v153.3c0,3.1-2.6,5.7-5.7,5.7l-74.5,0c-3.1,0-5.7-2.6-5.7-5.7V233.9c0-3.1,2.6-5.7,5.7-5.7h72.9
	c3.1,0,5.7,2.6,5.7,5.7l0,30.6c0,0,0.3,0,0.8,0.1c1.4-2.5,2.9-5,4.6-7.4c15.2-21.8,40.4-36.1,69-36.1h15
	C463.1,221.1,505.4,263.5,505.4,315.7L505.4,315.7z"/>
</svg>
